<?xml version="1.0" encoding="UTF-8"?>
<svg width="773px" height="243px" viewBox="0 0 773 243" version="1.1" xmlns="http://www.w3.org/2000/svg" xmlns:xlink="http://www.w3.org/1999/xlink">
    <!-- Generator: Sketch 52.6 (67491) - http://www.bohemiancoding.com/sketch -->
    <title>anz-logo</title>
    <desc>Created with Sketch.</desc>
    <defs>
        <radialGradient cx="49.9546279%" cy="-1.351209%" fx="49.9546279%" fy="-1.351209%" r="122.328136%" gradientTransform="translate(0.499546,-0.013512),scale(0.928976,1.000000),rotate(89.942707),translate(-0.499546,0.013512)" id="radialGradient-1">
            <stop stop-color="#66C0DE" offset="0%"></stop>
            <stop stop-color="#4CAFD5" offset="13.5%"></stop>
            <stop stop-color="#007DBA" offset="69.33%"></stop>
            <stop stop-color="#004165" offset="100%"></stop>
        </radialGradient>
    </defs>
    <g id="Page-1" stroke="none" stroke-width="1" fill="none" fill-rule="evenodd">
        <g id="anz-logo">
            <path d="M641.9,71.6 C653.4,71.6 666.4,81.5 666.5,95.1 C666.5,102.8 664,108.7 660.4,114.1 C658,117.6 656.2,121.6 655.5,124.5 C654.7,127.8 653,135.6 662.7,135.8 C669,135.9 684.5,130.5 697.1,115.4 C706.7,103.3 712.5,88 712.5,71.4 C712.5,32.4 680.9,0.8 641.9,0.8 C602.9,0.8 571.3,32.4 571.3,71.4 C571.3,88.1 577,103.4 586.7,115.4 C599.2,130.4 614.8,135.9 621.1,135.8 C630.8,135.6 629.1,127.8 628.3,124.5 C627.6,121.6 625.8,117.7 623.5,114.1 C619.9,108.7 617.4,102.8 617.4,95.1 C617.4,81.5 630.4,71.6 641.9,71.6 Z M766.7,142.9 C763.8,140.5 758.7,137 748.3,135.5 C733.9,133.3 721,136.7 713.2,139.8 C703,143.8 690.4,152.9 681.7,164.8 C672.6,177.3 667.8,196.3 672.3,216 C673.6,221.6 675,224.7 677,228.6 C679.8,233.9 686.9,241.3 693.2,242.6 C698.2,243.6 702,240.8 703.9,238.6 C716.5,224.1 764.4,167.9 769.5,160.7 C774.7,153.6 771.4,146.8 766.7,142.9 Z M570.6,139.8 C562.8,136.7 549.9,133.3 535.5,135.5 C525.1,137.1 520,140.6 517.1,142.9 C512.4,146.8 509.1,153.6 514.2,160.7 C519.4,167.9 567.2,224.1 579.8,238.6 C581.6,240.7 585.5,243.6 590.5,242.6 C596.8,241.3 603.9,233.9 606.7,228.6 C608.7,224.7 610.1,221.6 611.4,216 C616,196.3 611.2,177.3 602,164.8 C593.4,152.9 580.8,143.8 570.6,139.8 Z" id="Shape" fill="url(#radialGradient-1)" fill-rule="nonzero"></path>
            <g id="Group" transform="translate(0.000000, 71.000000)" fill="#FFFFFF">
                <path d="M363.1,45.5 L419.3,45.5 C419.3,45.5 407.7,60.6 395.1,77.1 L460.6,77.1 C472.3,61.9 482.9,48 484.5,45.9 C491.9,36.3 493.6,27.6 493.6,20 L493.6,9.1 C493.6,3.6 490.2,0.5 485,0.5 L363.2,0.5 C358.2,0.5 354.8,3.2 354.8,8.9 L354.8,37 C354.7,42.7 358,45.5 363.1,45.5 Z" id="Path"></path>
                <path d="M1.3,154.8 C-0.2,157.4 -0.2,160.1 0.7,161.9 C1.8,164 4.2,165.1 6.8,165.1 L46.7,165.1 C51.8,165.1 56.2,162.4 58.8,158.4 L102.8,88.6 L43.1,88.6 C22.4,121.2 1.7,154 1.3,154.8 Z" id="Path"></path>
                <path d="M165.2,88.6 L109.4,88.6 C110.8,96.3 121.1,153.9 121.7,157.3 C122.6,162.5 125.9,165.1 130.7,165.1 L169.1,165.1 C172.6,165.1 174.4,164 176,162 C177.1,160.6 177.6,158.5 177.1,155.4 L165.2,88.6 Z" id="Path"></path>
                <path d="M337.2,9 C337.2,3.4 333.8,0.6 328.8,0.6 L294.8,0.6 C289.8,0.6 286.4,3.3 286.4,9 L286.4,72.8 L254.2,15.4 C247.8,4.8 237,0.9 224.4,0.6 L199.3,0.6 C194.3,0.6 190.9,3.3 190.9,9 L190.9,77.2 L233,77.2 L239.4,88.6 L191,88.6 L191,156.7 C191,162.3 194.4,165.1 199.4,165.1 L233.4,165.1 C238.4,165.1 241.8,162.4 241.8,156.7 L241.8,92.5 L274.2,150.3 C280.5,160.8 291.4,164.8 304,165.1 L328.9,165.1 C333.9,165.1 337.3,162.4 337.3,156.7 L337.3,88.6 L295.4,88.6 L289,77.2 L337.3,77.2 L337.2,9 Z" id="Path"></path>
                <path d="M151,8.5 C150,3.1 146.5,0.6 141.7,0.6 L125,0.6 C107.6,0.6 92.4,9.7 83.8,23.5 C83.8,23.5 67.9,48.8 50.1,77.2 L163.2,77.2 L151,8.5 Z" id="Path"></path>
                <path d="M486.5,120.2 L427.5,120.2 C427.5,120.2 439,105.2 451.7,88.6 L386.2,88.6 C374.3,104.2 363.5,118.2 362.9,119 C354.2,131.1 353.3,143.3 353.3,151.8 C353.3,153.6 353.3,156.6 353.3,156.6 C353.3,162.1 356.7,165.2 361.9,165.2 L486.5,165.2 C491.5,165.2 494.9,162.5 494.9,156.8 L494.9,128.7 C494.9,122.9 491.5,120.2 486.5,120.2 Z" id="Path"></path>
            </g>
        </g>
    </g>
</svg>